<?xml version="1.0" encoding="UTF-8" standalone="no"?>
<!-- Created with Inkscape (http://www.inkscape.org/) -->

<svg
   xmlns:dc="http://purl.org/dc/elements/1.1/"
   xmlns:cc="http://creativecommons.org/ns#"
   xmlns:rdf="http://www.w3.org/1999/02/22-rdf-syntax-ns#"
   xmlns:svg="http://www.w3.org/2000/svg"
   xmlns="http://www.w3.org/2000/svg"
   xmlns:sodipodi="http://sodipodi.sourceforge.net/DTD/sodipodi-0.dtd"
   xmlns:inkscape="http://www.inkscape.org/namespaces/inkscape"
   width="210mm"
   height="297mm"
   viewBox="0 0 210 297"
   version="1.1"
   id="svg8"
   inkscape:version="0.92.5 (2060ec1f9f, 2020-04-08)"
   sodipodi:docname="ham_nav.svg">
  <defs
     id="defs2">
    <inkscape:perspective
       sodipodi:type="inkscape:persp3d"
       inkscape:vp_x="0 : 148.5 : 1"
       inkscape:vp_y="0 : 1000 : 0"
       inkscape:vp_z="210 : 148.5 : 1"
       inkscape:persp3d-origin="105 : 99 : 1"
       id="perspective99" />
  </defs>
  <sodipodi:namedview
     id="base"
     pagecolor="#ffffff"
     bordercolor="#666666"
     borderopacity="1.0"
     inkscape:pageopacity="0.0"
     inkscape:pageshadow="2"
     inkscape:zoom="11.2"
     inkscape:cx="332.10299"
     inkscape:cy="424.01934"
     inkscape:document-units="mm"
     inkscape:current-layer="layer1"
     showgrid="false"
     inkscape:window-width="1848"
     inkscape:window-height="1016"
     inkscape:window-x="72"
     inkscape:window-y="27"
     inkscape:window-maximized="1" />
  <metadata
     id="metadata5">
    <rdf:RDF>
      <cc:Work
         rdf:about="">
        <dc:format>image/svg+xml</dc:format>
        <dc:type
           rdf:resource="http://purl.org/dc/dcmitype/StillImage" />
        <dc:title></dc:title>
      </cc:Work>
    </rdf:RDF>
  </metadata>
  <g
     inkscape:label="Layer 1"
     inkscape:groupmode="layer"
     id="layer1">
    <path
       style="fill:#000000;stroke-width:0.04511474"
       d="m 83.34257,185.84628 c -0.04481,-0.054 -0.04481,-0.0814 0,-0.13537 0.04789,-0.0577 0.280406,-0.0677 1.579016,-0.0677 1.298609,0 1.531123,0.009 1.579016,0.0677 0.04481,0.054 0.04481,0.0814 0,0.13537 -0.0479,0.0577 -0.280407,0.0677 -1.579016,0.0677 -1.29861,0 -1.531123,-0.009 -1.579016,-0.0677 z"
       id="path75"
       inkscape:connector-curvature="0"
       sodipodi:nodetypes="ccsccsc" />
    <path
       style="fill:#000000;stroke-width:0.04511474"
       d="m 89.084056,181.04801 c 0.04481,-0.054 0.04481,-0.0814 0,-0.13536 -0.04789,-0.0577 -0.280406,-0.0677 -1.579015,-0.0677 -1.29861,0 -1.531124,0.009 -1.579016,0.0677 -0.04481,0.054 -0.04481,0.0814 0,0.13536 0.0479,0.0577 0.280406,0.0677 1.579016,0.0677 1.298609,0 1.531123,-0.009 1.579015,-0.0677 z"
       id="path75-3"
       inkscape:connector-curvature="0"
       sodipodi:nodetypes="ccsccsc" />
    <path
       style="fill:#000000;stroke-width:0.04511474"
       d="m 83.408544,183.48682 c -0.04481,-0.054 -0.04481,-0.0814 0,-0.13536 0.04885,-0.0589 0.43079,-0.0677 2.932459,-0.0677 2.50167,0 2.88361,0.009 2.932458,0.0677 0.04481,0.054 0.04481,0.0814 0,0.13536 -0.04885,0.0589 -0.430788,0.0677 -2.932458,0.0677 -2.501669,0 -2.883611,-0.009 -2.932459,-0.0677 z"
       id="path75-6"
       inkscape:connector-curvature="0"
       sodipodi:nodetypes="ccsccsc" />
  </g>
</svg>
