<?xml version="1.0" encoding="UTF-8" standalone="no"?>
<svg
   xmlns:dc="http://purl.org/dc/elements/1.1/"
   xmlns:cc="http://creativecommons.org/ns#"
   xmlns:rdf="http://www.w3.org/1999/02/22-rdf-syntax-ns#"
   xmlns:svg="http://www.w3.org/2000/svg"
   xmlns="http://www.w3.org/2000/svg"
   xmlns:sodipodi="http://sodipodi.sourceforge.net/DTD/sodipodi-0.dtd"
   xmlns:inkscape="http://www.inkscape.org/namespaces/inkscape"
   width="22.11"
   height="41.895"
   viewBox="0 0 22.11 41.895"
   version="1.1"
   id="svg15"
   sodipodi:docname="Layer_x0020_1.svg"
   inkscape:version="0.92.5 (2060ec1f9f, 2020-04-08)">
  <metadata
     id="metadata19">
    <rdf:RDF>
      <cc:Work
         rdf:about="">
        <dc:format>image/svg+xml</dc:format>
        <dc:type
           rdf:resource="http://purl.org/dc/dcmitype/StillImage" />
      </cc:Work>
    </rdf:RDF>
  </metadata>
  <sodipodi:namedview
     pagecolor="#ffffff"
     bordercolor="#666666"
     borderopacity="1"
     objecttolerance="10"
     gridtolerance="10"
     guidetolerance="10"
     inkscape:pageopacity="0"
     inkscape:pageshadow="2"
     inkscape:window-width="1848"
     inkscape:window-height="1016"
     id="namedview17"
     showgrid="false"
     inkscape:zoom="5.6331304"
     inkscape:cx="11.055"
     inkscape:cy="-4.2679639"
     inkscape:window-x="72"
     inkscape:window-y="27"
     inkscape:window-maximized="1"
     inkscape:current-layer="svg15" />
  <defs
     id="defs9">
    <style
       id="style2">.a{fill:url(#a);}</style>
    <linearGradient
       id="a"
       x1="15.215878"
       x2="15.215878"
       y2="30.432591"
       gradientUnits="userSpaceOnUse"
       gradientTransform="scale(0.72640151,1.3766491)"
       y1="0">
      <stop
         offset="0"
         stop-color="#9672fb"
         id="stop4" />
      <stop
         offset="1"
         stop-color="#d772fb"
         id="stop6" />
    </linearGradient>
  </defs>
  <g
     transform="rotate(15.952985,11.052837,20.9475)"
     id="g13">
    <path
       class="a"
       d="m 15.625,41.255 a 1.5,1.5 0 0 1 -1.227,0.64 H 7.6 A 7.171,7.171 0 0 1 2.157,39.288 9.182,9.182 0 0 1 0,33.306 v -16.9 A 9.183,9.183 0 0 1 2.152,10.424 7.362,7.362 0 0 1 6.237,7.954 9.12,9.12 0 0 1 8.369,2.607 7.171,7.171 0 0 1 13.812,0 h 6.8 a 1.5,1.5 0 0 1 1.111,2.5 l -6.1,7.672 a 1.5,1.5 0 0 1 -1.227,0.64 H 9.21 v 14.676 a 6.193,6.193 0 0 0 1.427,4.041 4.208,4.208 0 0 0 3.175,1.555 h 6.8 a 1.5,1.5 0 0 1 1.112,2.5 l -6.1,7.673 z M 9.253,7.818 h 4.425 l 3.837,-4.825 h -3.7 A 4.208,4.208 0 0 0 10.64,4.548 6.066,6.066 0 0 0 9.256,7.818 Z m -3.036,3.253 a 4.545,4.545 0 0 0 -1.8,1.3 6.193,6.193 0 0 0 -1.427,4.041 v 16.9 A 6.194,6.194 0 0 0 4.42,37.347 4.208,4.208 0 0 0 7.6,38.9 h 6.084 l 3.837,-4.825 h -3.7 A 7.171,7.171 0 0 1 8.369,31.47 9.182,9.182 0 0 1 6.217,25.488 Z"
       id="path11"
       style="fill:url(#a)"
       inkscape:connector-curvature="0" />
  </g>
</svg>
